<svg width="50" height="50" viewBox="0 0 50 50" xmlns="http://www.w3.org/2000/svg" xmlns:xlink="http://www.w3.org/1999/xlink">
<g id="Canvas" transform="translate(23 -2861)">
<g id="multiple-11">
<g id="Group">
<g id="Vector">
<use xlink:href="#path0_fill" transform="translate(-4.25 2861)" fill="#3B4C59"/>
</g>
<g id="Vector">
<use xlink:href="#path1_fill" transform="translate(-23 2877.67)" fill="#11BCC2"/>
</g>
<g id="Vector">
<use xlink:href="#path2_fill" transform="translate(-10.5 2877.67)" fill="#3B4C59"/>
</g>
<g id="Vector">
<use xlink:href="#path3_fill" transform="translate(-18.833 2867.25)" fill="#11BCC2"/>
</g>
<g id="Vector">
<use xlink:href="#path4_fill" transform="translate(14.5 2877.67)" fill="#FF7857"/>
</g>
<g id="Vector">
<use xlink:href="#path5_fill" transform="translate(14.5 2867.25)" fill="#FF7857"/>
</g>
</g>
</g>
</g>
<defs>
<path id="path0_fill" d="M6.25 12.5a6.25 6.25 0 1 1 0-12.5 6.25 6.25 0 1 1 0 12.5z"/>
<path id="path1_fill" d="M8.333 22.917V6.25c0-2.354.815-4.504 2.138-6.25H4.167A4.166 4.166 0 0 0 0 4.167v12.5h4.167v10.416c0 1.15.933 2.084 2.083 2.084h4.167c1.15 0 2.083-.934 2.083-2.084v-4.166H8.333z"/>
<path id="path2_fill" d="M16.667 33.333H8.333A2.084 2.084 0 0 1 6.25 31.25v-12.5H0V6.25A6.25 6.25 0 0 1 6.25 0h12.5A6.25 6.25 0 0 1 25 6.25v12.5h-6.25v12.5c0 1.15-.933 2.083-2.083 2.083z"/>
<path id="path3_fill" d="M4.167 8.333A4.166 4.166 0 0 1 0 4.167 4.166 4.166 0 0 1 4.167 0a4.166 4.166 0 0 1 4.166 4.167 4.166 4.166 0 0 1-4.166 4.166z"/>
<path id="path4_fill" d="M4.167 22.917V6.25c0-2.354-.815-4.504-2.138-6.25h6.304A4.166 4.166 0 0 1 12.5 4.167v12.5H8.333v10.416c0 1.15-.933 2.084-2.083 2.084H2.083A2.084 2.084 0 0 1 0 27.083v-4.166h4.167z"/>
<path id="path5_fill" d="M4.167 8.333a4.166 4.166 0 0 0 4.166-4.166A4.166 4.166 0 0 0 4.167 0 4.166 4.166 0 0 0 0 4.167a4.166 4.166 0 0 0 4.167 4.166z"/>
</defs>
</svg>