<svg width="50" height="50" viewBox="0 0 50 50" version="1.1" xmlns="http://www.w3.org/2000/svg" xmlns:xlink="http://www.w3.org/1999/xlink">
<title>Group 3</title>
<desc>Created using Figma</desc>
<g id="Canvas" transform="translate(25 -1434)">
<g id="Group 3">
<g id="Rectangle">
<use xlink:href="#path0_fill" transform="translate(-25 1434)" fill="#1F2D38"/>
</g>
<g id="Group 2">
<g id="Group">
<g id="Rectangle 4">
<use xlink:href="#path1_fill" transform="translate(-17.2222 1440.67)" fill="url(#paint1_linear)"/>
</g>
<g id="Rectangle 4.2">
<use xlink:href="#path2_fill" transform="translate(3.51847 1456.96)" fill="url(#paint2_linear)"/>
</g>
<g id="Rectangle 4.1">
<use xlink:href="#path3_fill" transform="translate(3.51847 1440.67)" fill="url(#paint3_linear)"/>
</g>
<g id="Rectangle 4.3">
<use xlink:href="#path4_fill" transform="translate(-17.2222 1467.33)" fill="#FFFFFF"/>
<use xlink:href="#path4_fill" transform="translate(-17.2222 1467.33)" fill="url(#paint5_linear)"/>
</g>
</g>
</g>
</g>
</g>
<defs>
<linearGradient id="paint1_linear" x1="0" y1="0" x2="1" y2="0" gradientUnits="userSpaceOnUse" gradientTransform="matrix(8.4024 15.3828 -10.9877 11.7633 8.35143 -3.61949)">
<stop offset="0" stop-color="#3AB0D2"/>
<stop offset="1" stop-color="#29D2B2"/>
</linearGradient>
<linearGradient id="paint2_linear" x1="0" y1="0" x2="1" y2="0" gradientUnits="userSpaceOnUse" gradientTransform="matrix(9.07146e-16 19.2593 -14.8148 1.17929e-15 14.8148 0)">
<stop offset="0" stop-color="#C070FF"/>
<stop offset="1" stop-color="#FF5CF8"/>
</linearGradient>
<linearGradient id="paint3_linear" x1="0" y1="0" x2="1" y2="0" gradientUnits="userSpaceOnUse" gradientTransform="matrix(8.4024 7.69142 -10.9877 5.88167 8.35143 -1.80974)">
<stop offset="0" stop-color="#FFE924"/>
<stop offset="1" stop-color="#FFBB54"/>
</linearGradient>
<linearGradient id="paint5_linear" x1="0" y1="0" x2="1" y2="0" gradientUnits="userSpaceOnUse" gradientTransform="matrix(-9.08809 6.4879 -10.8132 -5.91018 17.6248 4.13959)">
<stop offset="0" stop-color="#FF7857"/>
<stop offset="1" stop-color="#F89E2D"/>
</linearGradient>
<path id="path0_fill" d="M 0 4.44444C 0 1.98985 1.98985 0 4.44444 0L 45.5556 0C 48.0102 0 50 1.98985 50 4.44444L 50 45.5556C 50 48.0102 48.0102 50 45.5556 50L 4.44444 50C 1.98985 50 0 48.0102 0 45.5556L 0 4.44444Z"/>
<path id="path1_fill" d="M 0 2.22222C 0 0.994922 0.994923 0 2.22222 0L 12.5926 0C 13.8199 0 14.8148 0.994923 14.8148 2.22222L 14.8148 18.5185C 14.8148 19.7458 13.8199 20.7407 12.5926 20.7407L 2.22222 20.7407C 0.994923 20.7407 0 19.7458 0 18.5185L 0 2.22222Z"/>
<path id="path2_fill" d="M 0 2.22222C 0 0.994923 0.994923 0 2.22222 0L 12.5926 0C 13.8199 0 14.8148 0.994923 14.8148 2.22222L 14.8148 17.037C 14.8148 18.2643 13.8199 19.2593 12.5926 19.2593L 2.22222 19.2593C 0.994923 19.2593 0 18.2643 0 17.037L 0 2.22222Z"/>
<path id="path3_fill" d="M 0 2.22222C 0 0.994923 0.994923 0 2.22222 0L 12.5926 0C 13.8199 0 14.8148 0.994923 14.8148 2.22222L 14.8148 8.14815C 14.8148 9.37545 13.8199 10.3704 12.5926 10.3704L 2.22222 10.3704C 0.994923 10.3704 0 9.37545 0 8.14815L 0 2.22222Z"/>
<path id="path4_fill" d="M 0 2.22222C 0 0.994923 0.994923 0 2.22222 0L 12.5926 0C 13.8199 0 14.8148 0.994923 14.8148 2.22222L 14.8148 6.66667C 14.8148 7.89397 13.8199 8.88889 12.5926 8.88889L 2.22222 8.88889C 0.994923 8.88889 0 7.89397 0 6.66667L 0 2.22222Z"/>
</defs>
</svg>
