<svg width="53" height="55" viewBox="0 0 53 55" xmlns="http://www.w3.org/2000/svg" xmlns:xlink="http://www.w3.org/1999/xlink">
<g id="Canvas" transform="translate(26 -2404)">
<g id="Group 6">
<g id="Rectangle 3">
<use xlink:href="#path0_fill" transform="matrix(.82936 -.55871 .54568 .838 -20.075 2410.06)" fill="#C4C4C4"/>
</g>
<g id="Rectangle 3.1">
<use xlink:href="#path1_fill" transform="matrix(.97984 -.19976 .19334 .98113 -8.274 2404.52)" fill="#C4C4C4"/>
</g>
<g id="Rectangle 3.2">
<use xlink:href="#path2_fill" transform="matrix(.49044 -.87147 .8642 .50315 -26 2424.49)" fill="#C4C4C4"/>
</g>
<g id="Rectangle 3.3">
<use xlink:href="#path3_fill" transform="matrix(-.81485 .57966 -.5666 -.824 21.436 2452.57)" fill="#C4C4C4"/>
</g>
<g id="Rectangle 3.4">
<use xlink:href="#path4_fill" transform="matrix(-.97438 .2249 -.21775 -.976 9.777 2458.42)" fill="#C4C4C4"/>
</g>
<g id="Rectangle 3.5">
<use xlink:href="#path5_fill" transform="matrix(-.46841 .8835 -.87677 -.4809 27 2437.99)" fill="#C4C4C4"/>
</g>
<g id="link-72">
<g id="Group">
<g id="Vector">
<use xlink:href="#path6_fill" transform="translate(-23.165 2425.18)" fill="#11BCC2"/>
</g>
<g id="Vector">
<use xlink:href="#path7_fill" transform="translate(-9.139 2410.1)" fill="#3B4C59"/>
</g>
</g>
</g>
</g>
</g>
<defs>
<path id="path0_fill" d="M0 0h2.597v5.229H0V0z"/>
<path id="path1_fill" d="M0 0h2.585v5.252H0V0z"/>
<path id="path2_fill" d="M0 0h2.617v5.189H0V0z"/>
<path id="path3_fill" d="M0 0h2.598v5.227H0V0z"/>
<path id="path4_fill" d="M0 0h2.586v5.251H0V0z"/>
<path id="path5_fill" d="M0 0h2.618v5.187H0V0z"/>
<path id="path6_fill" d="M22.39.973a4.764 4.764 0 0 0-1.354 3.235c1.1.321 2.138.92 3.004 1.801 2.73 2.778 2.73 7.295 0 10.071l-7.426 7.554a6.925 6.925 0 0 1-9.902 0c-2.73-2.778-2.73-7.295 0-10.071l5.466-5.56a14.573 14.573 0 0 1-.237-6.327c-.38.301-.752.62-1.102.976l-7.427 7.553c-4.55 4.628-4.55 12.157 0 16.785a11.544 11.544 0 0 0 16.503 0l7.426-7.553c4.55-4.628 4.55-12.158 0-16.785A11.58 11.58 0 0 0 23.347 0l-.957.973z"/>
<path id="path7_fill" d="M10.839 3.471l-7.427 7.554c-4.55 4.627-4.55 12.157 0 16.785a11.58 11.58 0 0 0 3.995 2.651l.957-.973c.88-.896 1.316-2.063 1.34-3.238a6.931 6.931 0 0 1-2.99-1.798c-2.731-2.777-2.731-7.295 0-10.07l7.426-7.554a6.925 6.925 0 0 1 9.901 0c2.73 2.777 2.73 7.294 0 10.07l-5.471 5.566c.541 2.07.616 4.235.227 6.333.386-.304.763-.627 1.118-.987l7.426-7.554c4.55-4.627 4.55-12.157 0-16.785a11.543 11.543 0 0 0-16.502 0z"/>
</defs>
</svg>